<mxfile host="app.diagrams.net" modified="2024-04-01T00:34:52.363Z" agent="Mozilla/5.0 (X11; Linux x86_64) AppleWebKit/537.36 (KHTML, like Gecko) Chrome/123.0.0.0 Safari/537.36" version="24.2.1" etag="GOM9Te2WYqCttwXrYLO-" type="github">
  <diagram name="페이지-1" id="S8BH5ThCr3DP_qBzlzBh">
    <mxGraphModel>
      <root>
        <mxCell id="0" />
        <mxCell id="1" parent="0" />
      </root>
    </mxGraphModel>
  </diagram>
</mxfile>
